<?xml version="1.0" encoding="utf-8"?>
<!-- Generator: Adobe Illustrator 23.0.1, SVG Export Plug-In . SVG Version: 6.00 Build 0)  -->
<svg version="1.1" xmlns="http://www.w3.org/2000/svg" xmlns:xlink="http://www.w3.org/1999/xlink" x="0px" y="0px"
	viewBox="0 0 574.8 574.8" style="enable-background:new 0 0 574.8 574.8;" xml:space="preserve">
	<style type="text/css">
		.st0 {
			fill: hsl(44, 97%, 53%);
			transform-origin: center;
			transform-box: fill-box;
		}

		.st1 {
			opacity: 0;
		}

		#line-c {
			animation: spinner 2.5s infinite ease;
			transform-origin: center;
			transform-box: fill-box;
		}

		#dot-9 {
			animation: dot-9 2.5s infinite ease;
		}

		#dot-8 {
			animation: dot-8 2.5s infinite ease;
		}

		#dot-7 {
			animation: dot-7 2.5s infinite ease;
		}

		#dot-6 {
			animation: dot-6 2.5s infinite ease;
		}

		#dot-5 {
			animation: dot-5 2.5s infinite ease;
		}

		#dot-4 {
			animation: dot-4 2.5s infinite ease;
		}

		#dot-3 {
			animation: dot-3 2.5s infinite ease;
		}

		#dot-2 {
			animation: dot-2 2.5s infinite ease;
		}

		#dot-1 {
			animation: dot-1 2.5s infinite ease;
		}

		@keyframes spinner {
			0% {
				transform: rotateZ(0deg);
			}

			50% {
				transform: rotateZ(360deg);
			}

			100% {
				transform: rotateZ(360deg);
			}
		}

		@keyframes dot-9 {
			0% {
				transform: scale(0);
			}

			50% {
				transform: scale(0);
			}

			80% {
				transform: scale(1);
			}

			90% {
				transform: scale(1);
			}

			100% {
				transform: scale(0);
			}
		}

		@keyframes dot-8 {
			0% {
				transform: scale(0);
			}

			52% {
				transform: scale(0);
			}

			80% {
				transform: scale(1);
			}

			90% {
				transform: scale(1);
			}

			100% {
				transform: scale(0);
			}
		}

		@keyframes dot-7 {
			0% {
				transform: scale(0);
			}

			54% {
				transform: scale(0);
			}

			80% {
				transform: scale(1);
			}

			90% {
				transform: scale(1);
			}

			100% {
				transform: scale(0);
			}
		}

		@keyframes dot-6 {
			0% {
				transform: scale(0);
			}

			56% {
				transform: scale(0);
			}

			80% {
				transform: scale(1);
			}

			90% {
				transform: scale(1);
			}

			100% {
				transform: scale(0);
			}
		}

		@keyframes dot-5 {
			0% {
				transform: scale(0);
			}

			58% {
				transform: scale(0);
			}

			80% {
				transform: scale(1);
			}

			90% {
				transform: scale(1);
			}

			100% {
				transform: scale(0);
			}
		}

		@keyframes dot-4 {
			0% {
				transform: scale(0);
			}

			60% {
				transform: scale(0);
			}

			80% {
				transform: scale(1);
			}

			90% {
				transform: scale(1);
			}

			100% {
				transform: scale(0);
			}
		}

		@keyframes dot-3 {
			0% {
				transform: scale(0);
			}

			62% {
				transform: scale(0);
			}

			80% {
				transform: scale(1);
			}

			90% {
				transform: scale(1);
			}

			100% {
				transform: scale(0);
			}
		}

		@keyframes dot-2 {
			0% {
				transform: scale(0);
			}

			64% {
				transform: scale(0);
			}

			80% {
				transform: scale(1);
			}

			90% {
				transform: scale(1);
			}

			100% {
				transform: scale(0);
			}
		}

		@keyframes dot-1 {
			0% {
				transform: scale(0);
			}

			66% {
				transform: scale(0);
			}

			80% {
				transform: scale(1);
			}

			90% {
				transform: scale(1);
			}

			100% {
				transform: scale(0);
			}
		}
	</style>
	<g id="log-sun-g">
		<path id="dot-9" class="st0"
			d="M259.1,573.7l-1-0.5c-4.5-2.1-7.1-6.7-6.9-11.3c0.1-2.3,1-4.5,2.4-6.4
		c4.2-5.9,18.1-24.4,23.1-22l1,0.5c5.1,2.4-0.2,24.9-2,31.9c-0.6,2.2-1.7,4.4-3.4,5.9C268.8,574.8,263.6,575.8,259.1,573.7z" />
		<path id="dot-8" class="st0"
			d="M156.5,518.6l-0.8-0.9c-3.7-4-4-10.1-1.2-15.4c1.4-2.6,3.6-4.8,6.1-6.5
		c7.8-5.3,33-21.9,37.2-17.4l0.8,0.9c4.2,4.5-14,28.6-19.8,36c-1.9,2.4-4.2,4.4-6.9,5.6C166.4,523.3,160.3,522.6,156.5,518.6z" />
		<path id="dot-7" class="st0"
			d="M90.6,424l-0.6-1.5c-2.5-6.8-0.5-14,4.5-18.6c2.4-2.3,5.6-3.6,8.9-4.1
		c10.3-1.7,43.3-6.5,46.1,1.1l0.6,1.5c2.8,7.6-25.6,25.2-34.6,30.5c-2.9,1.7-6.1,2.8-9.5,2.6C99.3,435,93.1,430.7,90.6,424z" />
		<path id="dot-6" class="st0" d="M49.7,308.6l0-1.7c0.1-7.5,6.1-13.9,14.7-16.5c4.2-1.3,8.9-1.4,13.4-0.7
		c14,2.1,58.9,9.6,58.8,18l0,1.7c-0.1,8.4-45,15.1-59.1,17c-4.5,0.6-9.2,0.4-13.4-1C55.5,322.6,49.6,316.1,49.7,308.6z" />
		<path id="dot-5" class="st0"
			d="M81.8,189.5l0.8-1.7c3.5-7.6,11.8-11.6,20.5-10.9c4.3,0.3,8.5,2.1,12.1,4.6
		c11.3,7.8,47.1,33.2,43.1,41.7l-0.8,1.7c-4,8.5-46.4-2.6-59.6-6.3c-4.2-1.2-8.3-3.2-11.3-6.3C80.5,206,78.3,197,81.8,189.5z" />
		<path id="dot-4" class="st0"
			d="M145,83.4l-1.7,1.4c-7.5,6.4-9.6,16.9-6.2,26.5c1.7,4.7,4.9,8.8,8.8,12.1
		c12.1,10.2,51.6,42.2,60,35l1.7-1.4c8.4-7.2-16.9-51.2-25-64.8c-2.6-4.4-6.1-8.2-10.5-10.6C163.3,76.6,152.5,77,145,83.4z" />
		<path id="dot-3" class="st0"
			d="M247.6,9.9l-1.9,0.7c-8.6,3.1-13.4,12.7-13,23.8c0.2,5.4,2,11,4.7,15.9
		c8.2,15.4,35.1,64.5,44.8,61l1.9-0.7c9.6-3.5-1.1-58.4-4.7-75.5c-1.2-5.5-3.3-10.9-6.6-15.2C266,11.1,256.2,6.8,247.6,9.9z" />
		<path id="dot-2" class="st0"
			d="M376.2,0.2L374.1,0c-9.6-0.5-18.2,5.7-22.2,15c-2,4.6-2.5,9.8-1.9,14.9
		c1.7,15.8,8,66.3,18.7,66.9l2.2,0.1c10.8,0.6,22.6-48.9,26.1-64.4c1.1-5,1.2-10.2-0.3-15C393.7,7.8,385.8,0.7,376.2,0.2z" />
		<path id="dot-1" class="st0"
			d="M485.8,50l-1.7-0.8c-7.5-3.5-16.1-1.9-21.8,3.3c-2.9,2.6-4.7,6.1-5.6,9.8
		c-3,11.6-11.8,49-3.4,53l1.7,0.8c8.4,3.9,31.4-26.8,38.4-36.6c2.2-3.1,3.8-6.8,3.9-10.6C497.6,61.1,493.3,53.5,485.8,50z" />
		<g id="line-c">
			<path id="line-c-inner" class="st0" d="M353.5,519.9c-68.2-11.5-117.2-49-142.1-113.2c-24.9-64-14.5-125,28.7-178.6
			c52.8-65.5,145.4-83.7,220.1-45.2c2.5,1.3,5.1,2.5,7.5,3.9c7.1,4.3,13.8,4.3,18.7-2.8c4.9-7.1,2.1-13.4-4.4-18.3
			c-30.9-23.6-65.9-37.1-104.6-40c-118.1-8.7-216.1,84.4-213.7,202.7c1.6,78.7,53.8,153.8,127.1,179.7c16.4,5.8,33.4,12.6,51.6,12.9
			c3.8,0.1,7.7,1.7,11.2-1.3L353.5,519.9z" />
			<rect id="mask" x="163.7" y="125.2" transform="matrix(1 -9.117100e-03 9.117100e-03 1 -2.9639 3.3437)"
				class="st1" width="403.1" height="403.1" />
		</g>
	</g>
</svg>