<svg width="156" height="157" viewBox="0 0 156 157" fill="none" xmlns="http://www.w3.org/2000/svg">
<path fill-rule="evenodd" clip-rule="evenodd" d="M100.497 42.4958C97.3378 32.6589 92.2701 23.9527 85.129 16.461C83.3237 14.5659 81.3171 12.8298 80.0577 10.4725C79.2618 8.98017 78.5036 7.46726 77.7283 5.96528L77.2357 4.72656L77.0986 5.21428C77.0343 7.66502 75.6464 9.32594 73.9187 10.8777C71.9727 12.6223 70.1626 14.5174 68.2942 16.3482L62.5483 23.9054L57.9028 32.449L54.7957 40.8386L54.7023 40.9684C52.9928 46.5844 52.1496 52.3595 51.7359 58.1903C51.5794 60.3826 51.759 62.6052 51.8815 64.8085C52.0574 67.958 52.6046 71.053 53.4247 74.1019C56.4057 85.1739 62.4561 94.3569 70.7291 102.16C72.2651 103.61 73.926 104.929 75.5287 106.307L76.2384 108.743L76.8984 112.524L77.2139 116.471C77.2102 117.271 77.1775 118.076 77.2248 118.874C77.2381 119.079 77.5051 119.268 77.6555 119.465L78.9949 119.936L80.3889 120.478L80.1499 116.97L80.139 113.515L80.6207 108.252L80.9701 107.107L81.971 105.334C83.2061 104.342 84.5297 103.439 85.6544 102.334C87.689 100.336 89.7199 98.3096 91.541 96.1197C93.9032 93.2795 95.9366 90.1797 97.5696 86.8554C98.6603 84.6316 99.6891 82.3628 100.54 80.0395C101.289 77.9915 101.754 75.838 102.345 73.7306L102.5 73.2757C103.719 67.588 103.925 61.8421 103.477 56.0598C103.116 51.3998 102.021 46.9023 100.497 42.4958ZM76.3537 103.491C76.5405 102.556 76.7723 101.625 76.9409 100.686C76.7723 101.625 76.5417 102.556 76.3537 103.491ZM80.4993 104.137L79.7156 102.42L80.4993 104.137L81.6507 105.121L80.4993 104.137ZM129.216 125.886C128.214 123.966 126.743 122.508 124.799 121.55C123.171 120.75 121.421 120.398 119.62 120.347C118.271 120.308 116.917 120.377 115.566 120.394C114.366 120.409 113.165 120.429 111.965 120.418C110.554 120.404 109.143 120.361 107.732 120.321C107.497 120.314 107.331 120.361 107.222 120.599C107.051 120.969 106.848 121.326 106.639 121.731L106.874 121.806C107.574 121.93 108.278 122.036 108.974 122.175C109.869 122.354 110.272 122.868 110.313 123.623C110.374 124.697 110.398 125.775 110.395 126.852C110.376 131.116 110.346 135.379 110.315 139.641C110.312 139.922 110.307 140.216 110.231 140.48C110.142 140.786 110.047 141.182 109.818 141.332C109.424 141.594 108.935 141.771 108.466 141.848C107.785 141.959 107.671 141.99 107.459 142.659L107.366 142.994C107.265 143.359 107.319 143.431 107.7 143.435C109.886 143.459 112.071 143.506 114.256 143.499C116.25 143.492 118.243 143.613 120.229 143.238C122.106 142.885 123.858 142.266 125.457 141.219C127.532 139.859 129.024 138.042 129.811 135.67C130.447 133.754 130.589 131.8 130.373 129.797C130.226 128.415 129.855 127.113 129.216 125.886ZM125.385 137.608C124.216 139.784 122.471 141.238 119.978 141.621C118.417 141.86 116.853 141.791 115.364 141.2C114.421 140.826 114.071 140.012 114.042 139.05C114.014 138.107 114.003 137.163 114.002 136.221C113.997 132.904 113.997 129.587 114.002 126.271C114.004 125.226 114.022 124.179 114.039 123.134C114.051 122.398 114.205 122.152 114.923 122.093C118.072 121.828 121.077 122.168 123.573 124.384C125.116 125.755 125.994 127.504 126.36 129.512C126.511 130.349 126.557 131.205 126.652 132.055C126.576 133.993 126.314 135.88 125.385 137.608ZM151.821 134.015C151.199 132.503 150.023 131.556 148.544 130.949C148.039 130.742 147.519 130.571 146.974 130.369L147.164 130.248C147.753 129.871 148.408 129.566 148.915 129.102C150.148 127.972 150.66 126.551 150.419 124.864C150.191 123.259 149.391 122.081 147.96 121.316C146.662 120.625 145.262 120.372 143.813 120.374C141.307 120.376 138.799 120.414 136.292 120.418C135.429 120.42 134.565 120.355 133.701 120.343C133.534 120.341 133.285 120.383 133.213 120.495C133.016 120.798 132.884 121.148 132.744 121.485C132.662 121.681 132.743 121.789 132.967 121.818C133.57 121.901 134.172 122.004 134.776 122.094C135.611 122.219 136.015 122.653 136.066 123.494L136.076 123.993C136.078 126.607 136.086 129.222 136.075 131.836C136.062 134.446 136.033 137.058 136.001 139.669C135.998 139.998 135.953 140.328 135.905 140.654C135.834 141.147 135.571 141.486 135.066 141.593L133.638 141.874C133.469 141.908 133.225 141.904 133.156 142.008C132.894 142.4 132.683 142.828 132.712 143.345L132.859 143.385L137.655 143.503L138.617 143.499C140.277 143.48 141.939 143.512 143.596 143.427C145.391 143.338 147.076 142.805 148.633 141.889C150.292 140.912 151.568 139.625 152.022 137.689C152.313 136.453 152.314 135.209 151.821 134.015ZM139.636 122.876C139.643 122.351 139.875 122.123 140.397 122.11C141.682 122.074 142.958 122.082 144.198 122.525C145.802 123.097 146.788 124.48 146.77 126.17C146.761 126.819 146.771 127.462 146.532 128.086C146.06 129.314 145.155 129.962 143.872 130.088C143.202 130.156 142.526 130.163 141.929 130.195L139.937 130.107C139.673 130.098 139.557 129.981 139.558 129.709L139.636 122.876ZM147.893 139.248C147.252 140.644 146.082 141.378 144.618 141.633C143.447 141.837 142.266 141.777 141.109 141.479C140.252 141.259 139.903 140.571 139.732 139.808C139.617 139.298 139.636 138.69 139.626 138.158C139.611 137.338 139.623 135.636 139.623 135.636H139.606C139.606 134.423 139.609 133.372 139.602 132.209C139.601 131.957 139.643 131.833 139.95 131.842C141.04 131.875 142.133 131.893 143.222 131.936C144.197 131.973 145.109 132.262 145.967 132.724C147.272 133.428 148.058 134.505 148.274 135.985C148.439 137.108 148.369 138.212 147.893 139.248ZM28.284 140.556L28.3071 133.959C28.3107 132.967 28.1846 131.994 27.8594 131.052C26.9628 128.46 24.4902 127.279 21.9158 128.21C20.745 128.633 19.6955 129.275 18.6934 130.003C18.1098 130.428 18.1098 130.428 17.6876 129.822C16.4926 128.109 14.7856 127.523 12.7983 128.155C11.5135 128.563 10.39 129.26 9.326 130.071C9.22651 130.146 9.02633 130.23 8.96688 130.185C8.86739 130.111 8.79824 129.935 8.80067 129.803L8.87346 128.631C8.87953 128.385 8.83221 128.137 8.80794 127.879C8.3275 128.045 7.94412 128.211 7.54254 128.308C6.3014 128.611 5.05176 128.89 3.80334 129.176C3.50125 129.245 3.18217 129.336 3.15305 129.683C3.12272 130.024 3.4515 130.081 3.70628 130.183C4.24253 130.398 4.77515 130.628 5.30533 130.861C5.75059 131.057 5.9168 131.413 5.91437 131.891C5.90588 133.935 5.91923 135.977 5.9071 138.021C5.90224 138.852 5.86342 139.682 5.82581 140.513C5.79184 141.25 5.5407 141.558 4.82731 141.743C4.44878 141.843 4.06419 141.91 3.68323 141.999C3.59952 142.019 3.45636 142.072 3.45514 142.113C3.43937 142.474 3.41996 142.843 3.48062 143.193C3.49275 143.256 3.87371 143.256 4.08481 143.281L4.22676 143.272C5.69721 143.25 7.16765 143.227 8.63931 143.211C9.41942 143.203 10.1983 143.21 11.0452 143.21L11.1361 142.033C10.6509 141.945 10.2177 141.878 9.79067 141.785C9.1246 141.639 8.8407 141.286 8.82372 140.614L8.81158 139.652C8.80431 137.156 8.7946 134.662 8.7946 132.166C8.7946 131.803 8.94504 131.516 9.26412 131.299C9.93989 130.843 10.6533 130.48 11.4431 130.277C13.1077 129.851 14.5514 130.443 15.192 131.859C15.3946 132.306 15.5535 132.799 15.5984 133.285C15.8338 135.786 15.7319 138.291 15.5899 140.792C15.5596 141.332 15.306 141.604 14.7734 141.736L13.5214 142.001C13.4207 142.026 13.2739 141.958 13.2666 142.042C13.2387 142.388 13.2545 142.918 13.2545 142.918H13.5529L17.3649 143.043C18.4095 143.04 19.4553 143.167 20.4987 143.193C20.6855 143.197 20.8517 143.225 20.8627 143.009C20.8797 142.667 20.8651 142.345 20.8493 142.003L20.6504 141.968L19.5766 141.726C18.8523 141.555 18.6024 141.28 18.6 140.547C18.5915 138.741 18.6158 136.935 18.6 135.13C18.5915 134.098 18.5515 133.065 18.4847 132.035C18.4665 131.761 18.509 131.581 18.7274 131.427C19.3704 130.969 20.0656 130.616 20.8287 130.414C23.1763 129.796 25.0981 131.083 25.2194 133.503C25.3383 135.837 25.2886 138.18 25.2704 140.519C25.2643 141.333 24.995 141.58 24.193 141.798L23.9164 141.87C23.095 142.066 23.1023 142.066 23.1508 142.938C23.1666 143.211 23.2418 143.282 23.533 143.275C25.2061 143.237 26.8791 143.227 28.5522 143.213C29.2364 143.207 29.9207 143.213 30.6656 143.213L30.8173 142.077C30.1633 141.904 29.5604 141.775 28.978 141.585C28.4636 141.41 28.2816 141.099 28.284 140.556ZM85.8994 130.557C86.5886 129.918 86.5934 129.074 86.4005 128.136C85.8546 128.707 85.2431 128.971 84.5455 129.02C83.6101 129.087 82.6916 129.006 81.8205 128.633C79.4644 127.621 77.1447 127.693 74.8323 128.803C72.8875 129.735 71.6912 131.187 71.5711 133.389C71.4947 134.8 71.7592 136.136 72.7006 137.258C73.2648 137.93 73.9891 138.366 74.8056 138.667C75.1574 138.797 75.1841 138.964 74.8893 139.188C74.6734 139.355 74.4441 139.505 74.2135 139.649C73.721 139.959 73.2248 140.265 72.7261 140.564C72.4337 140.741 72.3342 140.967 72.4301 141.313C72.7104 142.329 73.4322 142.917 74.3349 143.345L74.6637 143.574L74.3761 143.862C73.4917 144.579 72.572 145.256 71.7252 146.016C71.0142 146.656 70.7849 147.512 70.9997 148.458C71.4328 150.344 72.6837 151.511 74.4586 152.047C77.5609 152.987 80.4738 152.448 83.1296 150.61C84.7044 149.519 85.8339 148.1 86.1773 146.146C86.5619 143.952 85.3426 142.047 83.16 141.654C81.7162 141.392 80.2385 141.316 78.7777 141.149C78.0959 141.071 77.4044 141.025 76.7407 140.869C76.1766 140.735 75.8963 140.275 75.9485 139.827C76.0006 139.385 76.4702 138.974 77.0076 138.931C78.0898 138.844 79.1502 138.675 80.1475 138.219C82.7899 137.011 84.0165 134.895 83.7096 132.046C83.6695 131.663 83.5822 131.284 83.5033 130.838C84.3489 130.98 85.214 131.194 85.8994 130.557ZM77.8812 143.924C78.9561 143.955 80.179 144.022 81.3607 144.368C82.4005 144.671 83.2558 145.202 83.5082 146.363C83.8127 147.766 83.1381 149.161 81.7805 149.911C80.509 150.612 79.1284 150.67 77.7283 150.526C76.5296 150.402 75.451 149.987 74.5872 149.102C73.4492 147.936 73.4431 146.322 74.5824 145.16C75.6003 144.121 76.145 143.907 77.8812 143.924ZM80.5709 135.477C79.9449 137.48 78.1226 137.757 76.6946 137.116C75.4777 136.571 74.9476 135.499 74.6697 134.275C74.5617 133.804 74.5363 133.315 74.4732 132.833C74.4987 132.143 74.6127 131.481 74.91 130.86C75.8211 128.946 78.0595 129.06 79.2982 129.927C79.8296 130.298 80.1997 130.802 80.4314 131.401C80.9458 132.74 80.998 134.105 80.5709 135.477ZM69.2029 141.862C68.7722 141.793 68.3391 141.703 67.9205 141.576C67.1828 141.35 67.0931 141.212 67.0846 140.432C67.0627 138.258 67.0482 136.084 67.0239 133.911C67.0118 132.933 66.8953 131.968 66.5956 131.034C65.807 128.571 63.3915 127.249 60.9747 127.976C59.6353 128.38 58.4851 129.131 57.4139 130.013L57.0232 130.312L57.0244 129.911C57.0499 129.449 57.0996 128.986 57.096 128.524C57.0936 128.283 57.0014 128.04 56.9565 127.828C56.0429 128.103 55.224 128.38 54.388 128.591C53.5497 128.802 52.6944 128.945 51.8463 129.117C51.4253 129.202 51.1159 129.457 51.1232 129.747C51.1341 130.156 51.4726 130.235 51.7687 130.357C52.3049 130.577 52.84 130.799 53.3701 131.034C53.7487 131.203 53.9028 131.516 53.8991 131.922C53.8724 134.748 53.8554 137.575 53.8142 140.402C53.8021 141.295 53.5764 141.53 52.698 141.726L52.3146 141.803C51.5018 141.942 51.4787 141.975 51.5345 142.833L51.5394 142.975C51.5297 143.305 51.674 143.412 52.0137 143.408C54.1733 143.383 56.3341 143.37 58.4936 143.379C59.4193 143.383 59.5188 143.31 59.4994 142.359L59.4557 141.95C58.9268 141.861 58.4208 141.797 57.9258 141.688C57.4078 141.572 57.2222 141.36 57.1736 140.834C57.1287 140.352 57.1142 139.863 57.1093 139.378C57.0851 137.156 57.0657 134.935 57.0547 132.715C57.0523 132.155 57.1554 131.636 57.6698 131.276C58.45 130.731 59.3041 130.415 60.248 130.351C62.1746 130.219 63.639 131.361 63.7433 133.281C63.8719 135.651 63.8331 138.029 63.8634 140.403C63.8659 140.58 63.8343 140.758 63.81 140.934C63.7639 141.281 63.5941 141.542 63.2422 141.632C62.8989 141.722 62.5507 141.802 62.2001 141.855C61.6772 141.933 61.6663 141.929 61.6262 142.457L61.6396 142.812C61.7014 143.426 61.7027 143.408 62.3238 143.402C64.413 143.385 66.501 143.374 68.589 143.376C69.4625 143.379 69.5244 143.338 69.5317 142.437L69.5292 142.224C69.5426 141.993 69.4395 141.9 69.2029 141.862ZM98.3836 128.125C96.1938 127.59 94.1167 127.988 92.144 129.008C90.2271 129.999 88.9459 131.532 88.4582 133.648C87.9656 135.786 88.201 137.873 89.1461 139.859C89.7612 141.149 90.7075 142.146 91.996 142.794C95.0121 144.313 98.7015 143.624 101.067 141.592C102.935 139.989 103.62 137.855 103.661 135.214C103.636 134.949 103.61 134.44 103.54 133.935C103.143 131.06 101.152 128.802 98.3836 128.125ZM100.042 139.232C99.461 141.52 97.4822 142.537 95.2499 141.751C94.1106 141.35 93.2589 140.585 92.6863 139.55C91.3687 137.172 91.1152 134.644 91.8649 132.05C92.3648 130.322 93.7867 129.377 95.478 129.496C96.9896 129.601 98.1519 130.327 99.0048 131.557C99.9038 132.855 100.251 134.332 100.343 135.882C100.359 136.131 100.345 136.38 100.345 136.63L100.452 136.642C100.319 137.507 100.256 138.389 100.042 139.232ZM43.3063 128.087C41.0024 127.561 38.8441 128.081 36.8446 129.252C35.1158 130.264 33.9984 131.776 33.5701 133.751C33.1685 135.596 33.3323 137.41 33.9862 139.177C34.3842 140.255 34.9872 141.202 35.8716 141.941C37.7339 143.495 39.9105 143.888 42.2266 143.455C44.1871 143.088 45.9099 142.217 47.162 140.587C48.334 139.063 48.7805 137.314 48.8266 135.418C48.7574 134.817 48.7404 134.206 48.613 133.62C47.9797 130.695 46.2691 128.763 43.3063 128.087ZM45.1856 139.225C44.6239 141.501 42.6136 142.543 40.397 141.757C38.9739 141.251 38.047 140.209 37.461 138.873C36.5219 136.727 36.3302 134.493 36.9381 132.229C37.4039 130.498 38.8077 129.223 40.9563 129.529C42.2751 129.715 43.3039 130.389 44.0707 131.46C45.1068 132.905 45.4477 134.56 45.495 136.298V136.654L45.5824 136.667C45.455 137.521 45.3919 138.39 45.1856 139.225Z" fill="#4FAA41"/>
</svg>
