<svg width="149" height="93" viewBox="0 0 149 93" fill="none" xmlns="http://www.w3.org/2000/svg">
<style type="text/css">
    .node-icon {
      transform-origin: center;
      transform-box: fill-box;
      animation: box-motion 5s ease infinite;
    }

    .node-icon-sm {
      transform-origin: center;
      transform-box: fill-box;
      animation: node-icon-sm-motion 2s linear infinite;
    }

    @keyframes box-motion {
      0% {
        transform: rotate(0);
      }

      50% {
        transform: rotate(180deg);
      }

      100% {
        transform: rotate(360deg);
      }
    }

    @keyframes node-icon-sm-motion {
      0% {
        transform: rotate(0);
      }

      100% {
        transform: rotate(360deg);
      }
    }
  </style>
<path d="M74.0112 91.2151C73.5353 91.2151 73.0621 91.0913 72.6455 90.8508L68.2977 88.286C67.6488 87.9237 67.9659 87.7956 68.1798 87.7212C69.0458 87.4216 69.2211 87.3524 70.1455 86.8298C70.2417 86.7758 70.3694 86.7963 70.4689 86.8545L73.8088 88.8317C73.9301 88.8986 74.1009 88.8986 74.212 88.8317L87.2335 81.3382C87.3547 81.2693 87.4323 81.1303 87.4323 80.9869V66.0043C87.4323 65.8577 87.3544 65.7209 87.2302 65.6465L74.2143 58.1596C74.0943 58.0894 73.9343 58.0894 73.8131 58.1596L60.8004 65.6488C60.6739 65.7209 60.5937 65.8623 60.5937 66.0043V80.9869C60.5937 81.1303 60.6736 81.2661 60.7991 81.334L64.3662 83.3889C66.3017 84.3537 67.4865 83.2173 67.4865 82.0756V67.2824C67.4865 67.0735 67.6553 66.9084 67.8649 66.9084H69.5161C69.7228 66.9084 69.8936 67.0735 69.8936 67.2824V82.0756C69.8936 84.6511 68.4868 86.1281 66.038 86.1281C65.2854 86.1281 64.6928 86.1281 63.0386 85.3154L59.624 83.3554C58.7808 82.8692 58.2583 81.9603 58.2583 80.9869V66.0043C58.2583 65.031 58.7805 64.122 59.624 63.6381L72.6455 56.1359C73.4695 55.6712 74.5647 55.6712 75.3821 56.1359L88.4026 63.6381C89.2459 64.1243 89.7703 65.031 89.7703 66.0043V80.9869C89.7703 81.9603 89.2459 82.866 88.4026 83.3554L75.3821 90.8511C74.9659 91.0913 74.4936 91.2151 74.0112 91.2151Z" fill="#699F63"/>
<path d="M78.0334 80.893C72.3352 80.893 71.1416 78.2854 71.1416 76.0979C71.1416 75.8899 71.3091 75.7239 71.5181 75.7239H73.2016C73.3896 75.7239 73.5464 75.8587 73.5758 76.042C73.83 77.7508 74.5878 78.6133 78.0337 78.6133C80.7768 78.6133 81.9447 77.9945 81.9447 76.5435C81.9447 75.707 81.6139 75.0859 77.3505 74.6696C73.7879 74.3183 71.5842 73.5335 71.5842 70.6915C71.5842 68.0718 73.7987 66.5096 77.5119 66.5096C81.6833 66.5096 83.7475 67.9532 84.0089 71.0503C84.0187 71.1569 83.9809 71.2596 83.9095 71.3392C83.8381 71.4136 83.7387 71.4588 83.6337 71.4588H81.9437C81.7687 71.4588 81.6139 71.335 81.5783 71.1657C81.1729 69.3675 80.1869 68.793 77.5119 68.793C74.5168 68.793 74.1686 69.8332 74.1686 70.6125C74.1686 71.5569 74.5797 71.8319 78.6233 72.3655C82.6249 72.8926 84.5258 73.6397 84.5258 76.4437C84.5252 79.2727 82.1595 80.893 78.0334 80.893Z" fill="#699F63"/>
<path d="M96.8098 65.1798C96.8098 66.5564 95.681 67.6818 94.3003 67.6818C92.9323 67.6818 91.7909 66.5698 91.7909 65.1798C91.7909 63.7632 92.9597 62.6771 94.3003 62.6771C95.6549 62.6771 96.8098 63.7632 96.8098 65.1798ZM92.196 65.1727C92.196 66.338 93.1386 67.2782 94.2935 67.2782C95.4623 67.2782 96.4053 66.3182 96.4053 65.1727C96.4053 64.0079 95.4496 63.0811 94.2935 63.0811C93.1517 63.0814 92.196 63.9943 92.196 65.1727ZM93.3574 63.7762H94.3274C94.6592 63.7762 95.3101 63.7762 95.3101 64.5178C95.3101 65.0342 94.9783 65.1398 94.7781 65.2061C95.1641 65.2328 95.1901 65.4843 95.2429 65.8418C95.27 66.0667 95.3101 66.4508 95.389 66.5831H94.7922C94.7782 66.4511 94.6853 65.7359 94.6853 65.6965C94.6465 65.5373 94.5924 65.4583 94.3935 65.4583H93.9027V66.5831H93.3577V63.7762H93.3574ZM93.8893 65.0072H94.327C94.6849 65.0072 94.7521 64.756 94.7521 64.6104C94.7521 64.226 94.4861 64.226 94.3401 64.226H93.8893V65.0072Z" fill="#699F63"/>
<path d="M33.6887 32.5959C33.6887 31.9976 33.3728 31.4477 32.8549 31.1513L19.0495 23.2299C18.8162 23.0931 18.5544 23.0219 18.2894 23.0109C18.2656 23.0109 18.1662 23.0109 18.1467 23.0109C17.883 23.0216 17.6213 23.0928 17.3843 23.2299L3.57891 31.1513C3.06425 31.4477 2.74417 31.9976 2.74417 32.5959L2.77448 53.926C2.77448 54.2224 2.92898 54.4987 3.19072 54.6439C3.44691 54.797 3.76373 54.797 4.01894 54.6439L12.2236 49.9596C12.7425 49.6525 13.0584 49.1101 13.0584 48.5174V38.5518C13.0584 37.9577 13.3739 37.4079 13.8908 37.1128L17.3843 35.1067C17.6447 34.9569 17.9293 34.8834 18.22 34.8834C18.5042 34.8834 18.7963 34.9569 19.0492 35.1067L22.5417 37.1128C23.0587 37.4082 23.3755 37.9581 23.3755 38.5518V48.5174C23.3755 49.1101 23.6956 49.6558 24.2112 49.9596L32.4136 54.6439C32.6708 54.797 32.9921 54.797 33.2474 54.6439C33.5016 54.4983 33.6616 54.2224 33.6616 53.926L33.6887 32.5959Z" fill="#333333"/>
<path d="M100.115 3.274C99.8567 3.13069 99.5415 3.13394 99.2863 3.2831C99.0317 3.43259 98.8749 3.70525 98.8749 4.00001V25.1238C98.8749 25.3315 98.7634 25.5239 98.5835 25.6279C98.4029 25.7319 98.1803 25.7319 97.9994 25.6279L94.5418 23.6416C94.0258 23.3452 93.3912 23.3459 92.8756 23.6422L79.0647 31.589C78.5484 31.8861 78.2306 32.4349 78.2306 33.0287V48.9255C78.2306 49.5196 78.5484 50.0681 79.0643 50.3658L92.8746 58.3184C93.3909 58.6155 94.0265 58.6155 94.5428 58.3184L108.355 50.3658C108.871 50.0685 109.189 49.5196 109.189 48.9255V9.29852C109.189 8.696 108.862 8.13996 108.333 7.84617L100.115 3.274ZM98.8338 43.7024C98.8338 43.8506 98.7543 43.988 98.6252 44.0618L93.8834 46.7871C93.7546 46.8609 93.5959 46.8609 93.4672 46.7871L88.7253 44.0618C88.5963 43.988 88.5167 43.8506 88.5167 43.7024V38.243C88.5167 38.0948 88.5962 37.9574 88.725 37.8829L93.4668 35.1521C93.5959 35.0777 93.755 35.0777 93.884 35.1521L98.6259 37.8829C98.7546 37.9574 98.8342 38.0948 98.8342 38.243L98.8338 43.7024Z" fill="#333333"/>
<path d="M146.103 38.1004C146.617 37.803 146.933 37.2551 146.933 36.6627V32.8103C146.933 32.2179 146.617 31.6696 146.102 31.3723L132.38 23.4287C131.864 23.1294 131.227 23.1291 130.709 23.4265L116.904 31.3733C116.388 31.6703 116.07 32.2189 116.07 32.8129V48.7055C116.07 49.3031 116.391 49.8546 116.912 50.15L130.632 57.9447C131.138 58.2327 131.758 58.2359 132.267 57.9538L140.566 53.355C140.829 53.2091 140.993 52.9335 140.994 52.6339C140.997 52.3342 140.837 52.0567 140.576 51.9072L126.683 43.9565C126.423 43.8083 126.264 43.5328 126.264 43.2351V38.2544C126.264 37.9574 126.422 37.6824 126.681 37.5343L131.005 35.0488C131.262 34.9006 131.58 34.9006 131.837 35.0488L136.164 37.5343C136.422 37.6824 136.581 37.9574 136.581 38.2544V42.173C136.581 42.4707 136.741 42.7457 136.999 42.8939C137.257 43.0427 137.576 43.0414 137.833 42.8922L146.103 38.1004Z" fill="#333333"/>
<path class="node-icon-sm" d="M131.341 37.3559C131.44 37.2987 131.562 37.2987 131.661 37.3559L134.311 38.8801C134.41 38.9372 134.471 39.0422 134.471 39.1566V42.2075C134.471 42.3219 134.41 42.4269 134.311 42.4841L131.661 44.0083C131.562 44.0655 131.44 44.0655 131.341 44.0083L128.693 42.4841C128.594 42.4269 128.533 42.3219 128.533 42.2075V39.1566C128.533 39.0422 128.594 38.9372 128.693 38.8801L131.341 37.3559Z" fill="#699F63"/>
<g class="node-icon">
<path d="M56.7906 23.5093C56.2776 23.2139 55.6453 23.2139 55.1326 23.5093L41.3992 31.4109C40.8855 31.7063 40.5694 32.2519 40.5694 32.8434V48.659C40.5694 49.2498 40.8855 49.7954 41.3986 50.0915L55.1319 57.9996C55.6453 58.295 56.2776 58.295 56.7913 57.9996L70.5214 50.0915C71.0344 49.7957 71.3503 49.2498 71.3503 48.659V32.8427C71.3503 32.2519 71.0341 31.7063 70.5207 31.4109L56.7906 23.5093Z" fill="url(#paint0_linear_129_128)"/>
<path d="M70.5478 31.4109L56.776 23.5093C56.64 23.431 56.4947 23.3751 56.3451 23.3384L40.8823 49.7113C41.0156 49.8608 41.1717 49.9911 41.3451 50.0912L55.14 57.9993C55.5309 58.2242 55.9953 58.2768 56.4213 58.1592L70.9171 31.694C70.8069 31.5854 70.6834 31.4889 70.5478 31.4109Z" fill="url(#paint1_linear_129_128)"/>
<path d="M54.6747 20.6046L54.4852 20.7124H54.7381L54.6747 20.6046Z" fill="url(#paint2_linear_129_128)"/>
<path d="M70.5556 50.0914C70.9558 49.8607 71.2544 49.4769 71.3675 49.0392L56.2707 23.324C55.8767 23.2457 55.4585 23.3051 55.1035 23.5096L41.4243 31.3637L56.2016 58.2053C56.4125 58.1767 56.6192 58.1084 56.8082 57.9999L70.5556 50.0914Z" fill="url(#paint3_linear_129_128)"/>
<path d="M71.8366 49.8382L71.7449 49.682V49.8912L71.8366 49.8382Z" fill="url(#paint4_linear_129_128)"/>
<path d="M70.5556 50.0915L56.8082 57.9996C56.6192 58.1085 56.4125 58.1764 56.2017 58.205L56.4755 58.7022L71.745 49.8897V49.682L71.3675 49.0392C71.2544 49.4769 70.9559 49.8604 70.5556 50.0915Z" fill="url(#paint5_linear_129_128)"/>
<path d="M70.5556 50.0915L56.8082 57.9996C56.6192 58.1085 56.4125 58.1764 56.2017 58.205L56.4755 58.7022L71.745 49.8897V49.682L71.3675 49.0392C71.2544 49.4769 70.9559 49.8604 70.5556 50.0915Z" fill="url(#paint6_linear_129_128)"/>
</g>
<defs>
<linearGradient id="paint0_linear_129_128" x1="61.5436" y1="29.394" x2="49.1956" y2="54.6584" gradientUnits="userSpaceOnUse">
<stop stop-color="#41873F"/>
<stop offset="0.3288" stop-color="#418B3D"/>
<stop offset="0.6352" stop-color="#419637"/>
<stop offset="0.9319" stop-color="#3FA92D"/>
<stop offset="1" stop-color="#3FAE2A"/>
</linearGradient>
<linearGradient id="paint1_linear_129_128" x1="53.8693" y1="42.6007" x2="88.6097" y2="16.8566" gradientUnits="userSpaceOnUse">
<stop offset="0.1376" stop-color="#41873F"/>
<stop offset="0.4032" stop-color="#54A044"/>
<stop offset="0.7136" stop-color="#66B848"/>
<stop offset="0.9081" stop-color="#6CC04A"/>
</linearGradient>
<linearGradient id="paint2_linear_129_128" x1="40.0486" y1="20.6585" x2="71.878" y2="20.6585" gradientUnits="userSpaceOnUse">
<stop offset="0.0919" stop-color="#6CC04A"/>
<stop offset="0.2864" stop-color="#66B848"/>
<stop offset="0.5968" stop-color="#54A044"/>
<stop offset="0.8624" stop-color="#41873F"/>
</linearGradient>
<linearGradient id="paint3_linear_129_128" x1="40.0834" y1="40.748" x2="71.836" y2="40.748" gradientUnits="userSpaceOnUse">
<stop offset="0.0919" stop-color="#6CC04A"/>
<stop offset="0.2864" stop-color="#66B848"/>
<stop offset="0.5968" stop-color="#54A044"/>
<stop offset="0.8624" stop-color="#41873F"/>
</linearGradient>
<linearGradient id="paint4_linear_129_128" x1="39.8404" y1="49.7866" x2="71.8367" y2="49.7866" gradientUnits="userSpaceOnUse">
<stop offset="0.0919" stop-color="#6CC04A"/>
<stop offset="0.2864" stop-color="#66B848"/>
<stop offset="0.5968" stop-color="#54A044"/>
<stop offset="0.8624" stop-color="#41873F"/>
</linearGradient>
<linearGradient id="paint5_linear_129_128" x1="40.0835" y1="53.8707" x2="71.836" y2="53.8707" gradientUnits="userSpaceOnUse">
<stop offset="0.0919" stop-color="#6CC04A"/>
<stop offset="0.2864" stop-color="#66B848"/>
<stop offset="0.5968" stop-color="#54A044"/>
<stop offset="0.8624" stop-color="#41873F"/>
</linearGradient>
<linearGradient id="paint6_linear_129_128" x1="76.462" y1="28.6457" x2="56.9722" y2="68.5225" gradientUnits="userSpaceOnUse">
<stop stop-color="#41873F"/>
<stop offset="0.3288" stop-color="#418B3D"/>
<stop offset="0.6352" stop-color="#419637"/>
<stop offset="0.9319" stop-color="#3FA92D"/>
<stop offset="1" stop-color="#3FAE2A"/>
</linearGradient>
</defs>
</svg>
