<svg width="157" height="157" viewBox="0 0 157 157" fill="none" xmlns="http://www.w3.org/2000/svg">
<path d="M141.457 25.2608L113.38 11.7432C111.795 10.9786 110.01 10.7264 108.275 11.0213C106.54 11.3162 104.939 12.1437 103.695 13.389L11.784 97.1825C10.6688 98.1944 10.0013 99.6078 9.92826 101.112C9.85521 102.616 10.3826 104.087 11.3944 105.203C11.5162 105.334 11.6379 105.461 11.7694 105.577L19.2732 112.395C20.2537 113.287 21.5159 113.808 22.8404 113.867C24.1649 113.925 25.4682 113.518 26.5238 112.716L137.231 28.7668C138.067 28.1322 139.064 27.7437 140.109 27.6449C141.154 27.5461 142.206 27.741 143.146 28.2076C144.086 28.6742 144.878 29.394 145.431 30.286C145.984 31.178 146.278 32.2067 146.278 33.2564V32.9301C146.278 31.3276 145.826 29.7577 144.973 28.4009C144.12 27.0441 142.901 25.9557 141.457 25.2608Z" fill="#0065A9"/>
<path d="M141.457 132.096L113.38 145.619C111.794 146.381 110.01 146.632 108.276 146.337C106.541 146.043 104.94 145.216 103.695 143.973L11.784 60.1746C10.6688 59.1627 10.0013 57.7493 9.92826 56.2453C9.85521 54.7412 10.3826 53.2698 11.3944 52.1546C11.5162 52.0231 11.6379 51.8965 11.7694 51.7796L19.2732 44.9624C20.2547 44.0662 21.5197 43.5432 22.8475 43.4844C24.1753 43.4257 25.4816 43.835 26.5384 44.641L137.231 128.59C138.067 129.225 139.064 129.613 140.109 129.712C141.154 129.811 142.206 129.616 143.146 129.15C144.086 128.683 144.878 127.963 145.431 127.071C145.984 126.179 146.278 125.15 146.278 124.101V124.451C146.273 126.05 145.818 127.614 144.966 128.966C144.113 130.318 142.897 131.403 141.457 132.096Z" fill="#007ACC"/>
<path d="M113.38 145.619C111.794 146.381 110.011 146.632 108.276 146.337C106.541 146.042 104.94 145.216 103.695 143.973C104.394 144.663 105.282 145.131 106.246 145.319C107.21 145.507 108.209 145.406 109.116 145.029C110.023 144.652 110.799 144.016 111.346 143.2C111.894 142.384 112.188 141.425 112.192 140.442V16.9141C112.193 15.927 111.901 14.9618 111.353 14.1409C110.804 13.32 110.025 12.6803 109.113 12.3028C108.201 11.9252 107.197 11.8269 106.229 12.0202C105.261 12.2135 104.373 12.6897 103.675 13.3886C104.92 12.1437 106.52 11.3161 108.255 11.0204C109.99 10.7247 111.774 10.9754 113.361 11.7378L141.433 25.236C142.882 25.9274 144.105 27.0144 144.963 28.3714C145.82 29.7284 146.276 31.3002 146.278 32.9053V124.451C146.279 126.055 145.826 127.626 144.972 128.984C144.118 130.342 142.898 131.431 141.453 132.125L113.38 145.619Z" fill="#1F9CF0"/>
</svg>
