<svg width="1440" height="229" viewBox="0 0 1440 229" fill="none" xmlns="http://www.w3.org/2000/svg">
  <path
    d="M0 56.3309L60 44.8196C120 33.7386 240 10.0705 360 27.6064C480 44.4969 600 102.591 720 96.4592C840 90.7573 960 21.9045 1080 4.69133C1200 -12.5219 1320 21.9045 1380 39.1177L1440 56.3309V228.463H1380C1320 228.463 1200 228.463 1080 228.463C960 228.463 840 228.463 720 228.463C600 228.463 480 228.463 360 228.463C240 228.463 120 228.463 60 228.463H0V56.3309Z"
    fill="#F9BD19" />
</svg>