<svg width="1440" height="262" viewBox="0 0 1440 262" fill="none" xmlns="http://www.w3.org/2000/svg">
  <path
    d="M0 261.426L60 230.953C120 200.154 240 139.699 360 135.043C480 130.713 600 182.998 720 178.668C840 174.011 960 113.557 1080 104.57C1200 95.5837 1320 139.699 1380 161.185L1440 182.998V3.05176e-05H1380C1320 3.05176e-05 1200 3.05176e-05 1080 3.05176e-05C960 3.05176e-05 840 3.05176e-05 720 3.05176e-05C600 3.05176e-05 480 3.05176e-05 360 3.05176e-05C240 3.05176e-05 120 3.05176e-05 60 3.05176e-05H0V261.426Z"
    fill="#F9BD19" />
</svg>