<svg width="124" height="119" viewBox="0 0 124 119" fill="none" xmlns="http://www.w3.org/2000/svg">
  <g clip-path="url(#clip0_121_10)">
    <path
      d="M55.895 118.772L55.6792 118.669C54.7085 118.234 54.1476 117.282 54.1907 116.329C54.2123 115.853 54.4064 115.398 54.7085 115.004C55.6145 113.783 58.6131 109.953 59.6918 110.45L59.9075 110.553C61.0077 111.05 59.8643 115.708 59.476 117.157C59.3466 117.613 59.1093 118.068 58.7426 118.379C57.9875 119 56.8657 119.207 55.895 118.772Z"
      fill="#F9BD19" />
    <path
      d="M33.7613 107.365L33.5887 107.178C32.7905 106.35 32.7258 105.087 33.3298 103.99C33.6319 103.452 34.1065 102.996 34.6458 102.644C36.3284 101.547 41.7648 98.1105 42.6708 99.0421L42.8434 99.2285C43.7495 100.16 39.8232 105.15 38.572 106.682C38.1621 107.178 37.6659 107.592 37.0835 107.841C35.897 108.338 34.5811 108.193 33.7613 107.365Z"
      fill="#F9BD19" />
    <path
      d="M19.5448 87.7802L19.4154 87.4697C18.8761 86.0619 19.3075 84.5713 20.3862 83.619C20.9039 83.1428 21.5943 82.8737 22.3062 82.7701C24.5281 82.4182 31.6472 81.4245 32.2512 82.9979L32.3806 83.3084C32.9847 84.8818 26.858 88.5255 24.9165 89.6228C24.2908 89.9747 23.6005 90.2025 22.867 90.1611C21.4217 90.0575 20.0842 89.1673 19.5448 87.7802Z"
      fill="#F9BD19" />
    <path
      d="M10.7217 63.8891V63.5372C10.7432 61.9845 12.0376 60.6595 13.8929 60.1212C14.7989 59.8521 15.8128 59.8314 16.7836 59.9763C19.8038 60.4111 29.49 61.9638 29.4684 63.7028V64.0548C29.4468 65.7938 19.7607 67.1809 16.7189 67.5742C15.7481 67.6984 14.7342 67.657 13.8281 67.3672C11.9729 66.7875 10.7001 65.4418 10.7217 63.8891Z"
      fill="#F9BD19" />
    <path
      d="M17.6465 39.2318L17.8191 38.8798C18.5742 37.3064 20.3647 36.4783 22.2415 36.6232C23.1692 36.6853 24.0752 37.058 24.8518 37.5755C27.2896 39.1904 35.0126 44.4489 34.1497 46.2086L33.9771 46.5606C33.1142 48.3203 23.9674 46.0223 21.1198 45.2563C20.2137 45.0079 19.3292 44.5938 18.682 43.952C17.3661 42.6477 16.8915 40.7845 17.6465 39.2318Z"
      fill="#F9BD19" />
    <path
      d="M31.2805 17.2664L30.9137 17.5562C29.2958 18.8812 28.8427 21.055 29.5762 23.0425C29.9429 24.0155 30.6333 24.8643 31.4746 25.5475C34.0849 27.6592 42.6061 34.2841 44.4182 32.7935L44.785 32.5037C46.5971 31.0131 41.1392 21.9038 39.3918 19.0882C38.8309 18.1773 38.0759 17.3906 37.1267 16.8937C35.2283 15.8586 32.8984 15.9414 31.2805 17.2664Z"
      fill="#F9BD19" />
    <path
      d="M53.4141 2.04933L53.0042 2.19425C51.149 2.83604 50.1135 4.82351 50.1998 7.12153C50.2429 8.23948 50.6312 9.39884 51.2137 10.4133C52.9826 13.6015 58.7857 23.7666 60.8783 23.042L61.2882 22.8971C63.3592 22.1725 61.0509 10.8066 60.2742 7.26645C60.0154 6.12779 59.5623 5.00984 58.8504 4.11961C57.3835 2.29776 55.2694 1.40754 53.4141 2.04933Z"
      fill="#F9BD19" />
    <path
      d="M81.1565 0.0413794L80.7035 -2.63522e-05C78.6325 -0.103541 76.7772 1.18004 75.9143 3.1054C75.4829 4.05773 75.375 5.13428 75.5044 6.19013C75.8712 9.46118 77.2303 19.9161 79.5386 20.0403L80.0132 20.061C82.343 20.1853 84.8886 9.93734 85.6436 6.7284C85.8809 5.69326 85.9025 4.61671 85.5789 3.62297C84.9318 1.6148 83.2275 0.144894 81.1565 0.0413794Z"
      fill="#F9BD19" />
    <path
      d="M104.8 10.3515L104.434 10.1859C102.816 9.46128 100.96 9.79252 99.7307 10.8691C99.1051 11.4073 98.7168 12.1319 98.5227 12.898C97.8755 15.2995 95.9771 23.0424 97.7892 23.8705L98.1559 24.0361C99.968 24.8435 104.93 18.4877 106.44 16.4588C106.914 15.8171 107.26 15.051 107.281 14.2643C107.346 12.6495 106.418 11.0761 104.8 10.3515Z"
      fill="#F9BD19" />
    <path
      d="M76.2594 107.634C61.5469 105.253 50.9762 97.4897 45.6046 84.1985C40.233 70.9487 42.4766 58.3199 51.796 47.2232C63.1864 33.6628 83.1627 29.8949 99.2775 37.8655C99.8169 38.1346 100.378 38.3831 100.895 38.6729C102.427 39.5631 103.873 39.5631 104.93 38.0932C105.987 36.6233 105.383 35.319 103.98 34.3046C97.3144 29.4187 89.764 26.6238 81.4153 26.0235C55.9379 24.2223 34.7967 43.4967 35.3144 67.9881C35.6596 84.2813 46.9205 99.8291 62.7333 105.191C66.2713 106.392 69.9386 107.8 73.8649 107.862C74.6846 107.883 75.526 108.214 76.281 107.593L76.2594 107.634Z"
      fill="#F9BD19" />
  </g>
  <defs>
    <clipPath id="clip0_121_10">
      <rect width="124" height="119" fill="white" />
    </clipPath>
  </defs>
</svg>