<svg width="142" height="141" viewBox="0 0 142 141" fill="none" xmlns="http://www.w3.org/2000/svg">

  <style type="text/css">
    .rings {
      transform-origin: center;
      animation: box-motion 5s linear infinite;
    }

    @keyframes box-motion {
      0% {
        transform: rotate(0);
      }

      100% {
        transform: rotate(360deg);
      }
    }
  </style>
  <path
    d="M70.9124 83.5457C77.9638 83.5457 83.6801 77.8294 83.6801 70.778C83.6801 63.7266 77.9638 58.0103 70.9124 58.0103C63.8609 58.0103 58.1446 63.7266 58.1446 70.778C58.1446 77.8294 63.8609 83.5457 70.9124 83.5457Z"
    fill="#61DAFB" />
  <path class="rings"
    d="M70.9144 117.731C80.9364 127.479 90.8211 133.245 98.7838 133.245C101.392 133.245 103.863 132.695 105.923 131.46C113.062 127.341 115.67 117.045 113.199 102.355C112.787 99.7465 112.238 97.138 111.551 94.3923C114.297 93.5685 116.768 92.7448 119.24 91.9211C133.106 86.5669 140.794 79.1534 140.794 71.0534C140.794 62.8162 133.106 55.4026 119.24 50.1857C116.768 49.2247 114.297 48.401 111.551 47.7145C112.238 44.9688 112.787 42.3603 113.199 39.7519C115.533 24.7875 112.924 14.3537 105.785 10.2351C103.726 8.99947 101.255 8.45032 98.6465 8.45032C90.8211 8.45032 80.7991 14.2164 70.7771 23.9638C60.8924 14.2164 51.0077 8.45032 43.045 8.45032C40.4366 8.45032 37.9654 8.99947 35.9061 10.2351C28.7671 14.3537 26.1587 24.6502 28.6299 39.34C29.0417 41.9485 29.5909 44.5569 30.2773 47.3027C27.5316 48.1264 25.0604 48.9501 22.5892 49.7738C8.72318 55.1281 1.03509 62.5416 1.03509 70.6415C1.03509 78.8788 8.72318 86.2923 22.5892 91.5092C25.0604 92.4702 27.5316 93.294 30.2773 93.9804C29.5909 96.7262 29.0417 99.3346 28.6299 101.943C26.296 116.633 28.9044 127.067 35.9061 131.048C37.9654 132.284 40.4366 132.833 43.045 132.833C51.0077 133.107 60.8924 127.341 70.9144 117.731ZM63.2263 99.1973C65.6975 99.3346 68.3059 99.3346 70.9144 99.3346C73.5229 99.3346 76.1313 99.3346 78.6025 99.1973C76.1313 102.492 73.5229 105.513 70.9144 108.396C68.3059 105.513 65.6975 102.492 63.2263 99.1973ZM46.2027 85.0567C47.5755 87.3906 48.8111 89.5872 50.3213 91.7838C46.0654 91.2346 42.084 90.5482 38.24 89.7245C39.4756 86.0177 40.8484 82.1737 42.4959 78.3296C43.5942 80.5262 44.8298 82.8601 46.2027 85.0567ZM38.24 51.9704C42.084 51.1467 46.0654 50.4603 50.3213 49.9111C48.9484 52.1077 47.5755 54.3043 46.2027 56.6382C44.8298 58.9721 43.5942 61.1687 42.4959 63.5026C40.7112 59.5213 39.3383 55.6772 38.24 51.9704ZM45.7908 70.7788C47.5755 67.0721 49.4976 63.3653 51.6942 59.6585C53.7535 56.0891 56.0874 52.5196 58.4212 48.9501C62.5399 48.6755 66.6585 48.5382 70.9144 48.5382C75.3076 48.5382 79.4262 48.6755 83.4075 48.9501C85.8787 52.5196 88.0753 56.0891 90.1346 59.6585C92.3312 63.3653 94.2533 67.0721 96.038 70.7788C94.2533 74.4856 92.3312 78.1923 90.1346 81.8991C88.0753 85.4686 85.7414 89.0381 83.4075 92.6075C79.2889 92.8821 75.1703 93.0194 70.9144 93.0194C66.5212 93.0194 62.4026 92.8821 58.4212 92.6075C55.9501 89.0381 53.7535 85.4686 51.6942 81.8991C49.4976 78.1923 47.5755 74.4856 45.7908 70.7788ZM99.4702 63.3653L95.7634 56.5009C94.3905 54.167 93.155 51.9704 91.6448 49.7738C95.9007 50.323 99.882 51.0094 103.726 51.8332C102.491 55.6772 101.118 59.5212 99.4702 63.3653ZM99.4702 78.1923C101.118 82.0364 102.491 85.8804 103.726 89.5872C99.882 90.4109 95.9007 91.0974 91.6448 91.6465C93.0177 89.4499 94.3905 87.2533 95.7634 84.9194C96.999 82.8601 98.2346 80.5262 99.4702 78.1923ZM102.628 125.831C101.529 126.518 100.157 126.792 98.6465 126.792C91.9194 126.792 83.5448 121.301 75.3076 113.063C79.2889 108.807 83.133 104.002 86.977 98.6482C93.4295 98.099 99.6075 97.138 105.374 95.7651C106.06 98.2363 106.472 100.707 106.884 103.179C108.806 114.848 107.296 123.223 102.628 125.831ZM109.767 53.4806C125.143 57.8738 134.341 64.6009 134.341 70.7788C134.341 76.133 128.026 81.4872 116.906 85.7432C114.709 86.5669 112.238 87.3906 109.767 88.077C107.982 82.4482 105.785 76.6822 103.04 70.7788C105.785 64.8755 108.119 59.1094 109.767 53.4806ZM98.7838 14.7655C100.294 14.7655 101.529 15.0401 102.765 15.7266C107.296 18.335 108.943 26.5723 107.021 38.379C106.609 40.7129 106.06 43.184 105.511 45.7925C99.7448 44.5569 93.5668 43.5959 87.1143 42.9095C83.4076 37.5553 79.4262 32.7502 75.4449 28.4943C83.6821 20.3943 92.0567 14.7655 98.7838 14.7655ZM78.6025 42.3603C76.1313 42.223 73.5229 42.223 70.9144 42.223C68.3059 42.223 65.6975 42.223 63.2263 42.3603C65.6975 39.0654 68.3059 36.0451 70.9144 33.1621C73.5229 36.0451 76.1313 39.2027 78.6025 42.3603ZM39.201 15.7266C40.2993 15.0401 41.6722 14.7655 43.1823 14.7655C49.9094 14.7655 58.2839 20.257 66.5212 28.4943C62.5399 32.7502 58.6958 37.5553 54.8518 42.9095C48.3993 43.4586 42.2213 44.4196 36.4552 45.7925C35.7688 43.3213 35.3569 40.8502 34.9451 38.379C33.0231 26.7095 34.5332 18.4723 39.201 15.7266ZM32.062 88.077C16.6859 83.6838 7.4876 76.9568 7.4876 70.7788C7.4876 65.4246 13.8028 60.0704 24.9231 55.8145C27.1197 54.9908 29.5909 54.167 32.062 53.4806C33.8468 59.1094 36.0434 64.8755 38.7891 70.7788C36.0434 76.6822 33.7095 82.5855 32.062 88.077ZM34.9451 103.179C35.3569 100.845 35.9061 98.3736 36.4552 95.7651C42.2213 97.0007 48.3993 97.9617 54.8518 98.6482C58.5585 104.002 62.5399 108.807 66.5212 113.063C58.2839 121.163 49.9094 126.792 43.1823 126.792C41.6722 126.792 40.4366 126.518 39.201 125.831C34.5332 123.223 33.0231 114.848 34.9451 103.179Z"
    fill="#61DAFB" />
</svg>